<svg xmlns:dc="http://purl.org/dc/elements/1.1/" xmlns:cc="http://creativecommons.org/ns#" xmlns:rdf="http://www.w3.org/1999/02/22-rdf-syntax-ns#" xmlns:svg="http://www.w3.org/2000/svg" xmlns="http://www.w3.org/2000/svg" xmlns:sodipodi="http://sodipodi.sourceforge.net/DTD/sodipodi-0.dtd" xmlns:inkscape="http://www.inkscape.org/namespaces/inkscape" xmlns:xlink="http://www.w3.org/1999/xlink" version="1.1" viewBox="0 0 744 1052" x="0px" y="0px"><path d="M 351.82668,231.07259 ,m0 0,-4.9589,-4.95892 0,-91.00556 0,-91.005555 -155.05846,-0.008 c -148.615565,-0.007 -155.319195,-0.16654 -161.334965,-3.834861 -3.45211,-2.10504 -6.80841,-5.8611 -7.45843,-8.34679 -1.78207,-6.81463 7.81701,-15.43074 18.96238,-17.0206 4.90311,-0.69941 152.598565,-1.00456 328.212175,-0.67812 304.0459,0.56519 319.5637,0.76805 324.8726,4.2468 6.6814,4.37808 8.2346,7.81235 6.5568,14.49726 -2.8548,11.374471 0.6372,11.143911 -168.78369,11.143911 l -155.66391,0 -0.012,86.368035 c -0.01,53.46326 -0.8103,89.24536 -2.1087,93.92041 -3.4055,12.26273 -14.4634,15.44386 -23.2256,6.68159 l 8e-4,0 zM 280.36655,317.51143 ,m0 0,c -5.1328,-5.1328 -6.1094,-7.4238 -5.0584,-11.8659 1.8478,-7.8094 8.3753,-12.5761 17.2216,-12.5761 9.0326,0 18.2539,7.4278 18.2539,14.7037 0,6.4568 -7.9002,13.4774 -16.7892,14.9199 -6.2627,1.0163 -8.1461,0.3002 -13.6279,-5.1816 zM 410.36655,320.36857 ,m0 0,c -5.1328,-5.1328 -6.1094,-7.4238 -5.0584,-11.8659 1.8478,-7.8094 8.3753,-12.5761 17.2216,-12.5761 9.0326,0 18.2539,7.4278 18.2539,14.7037 0,6.4568 -7.9002,13.4774 -16.7892,14.9199 -6.2627,1.0163 -8.1461,0.3002 -13.6279,-5.1816 zM 289.0181,402.94629 ,m0 0,-9.7338,-6.173 4.7926,-5.2252 c 2.6359,-2.8739 10.1002,-9.1728 16.5874,-13.9976 15.6556,-11.6438 33.5129,-16.9261 57.1134,-16.8946 20.06346,0.027 33.22806,2.9188 48.41596,10.636 13.2571,6.7361 30.2322,22.0181 28.7125,25.8486 -0.6301,1.5881 -5.2276,5.0823 -10.2167,7.7649 l -9.0712,4.8775 -8.8262,-7.1593 c -30.1411,-24.4487 -66.13926,-24.5731 -96.03926,-0.3318 -4.6317,3.7551 -9.2266,6.8275 -10.2111,6.8275 -0.9844,0 -6.17,-2.7779 -11.5236,-6.173 zM 305.5314,460.4967 ,m0 0,c -61.1438,-22.11097 -94.3663,-66.93677 -90.9676,-122.73917 1.9717,-32.3736 10.594,-51.8427 33.3117,-75.2175 58.9728,-60.6785 166.89819,-58.7614 224.24329,3.9833 24.3019,26.5901 34.2514,53.431 31.8092,85.812 -3.325,44.0848 -27.9673,77.2787 -74.4097,100.2318 -26.0252,12.86227 -35.0358,15.19647 -63.4214,16.42947 -27.4005,1.1902 -37.8085,-0.2705 -60.56549,-8.4999 l 0,0 z m 109.20879,-22.50967 c 23.2958,-10.129 50.9792,-37.3002 59.9999,-58.8897 8.7859,-21.0275 7.19,-53.1983 -3.8108,-76.8225 -33.7127,-72.3974 -151.3251,-86.7595 -206.88319,-25.2633 -19.162,21.21 -25.9898,38.4024 -25.9898,65.4417 0,47.9066 23.4093,78.6804 76.017,99.9314 25.63619,10.3559 71.32559,8.3599 100.66689,-4.3976 l 0,0 zM 335.37365,467.53214 ,m0 0,c -5.43203,-0.72703 -16.65597,-3.59046 -24.94212,-6.36318 -48.27698,-16.15449 -81.18914,-47.47675 -91.80261,-87.36788 -3.81474,-14.33784 -4.0845,-40.33167 -0.58986,-56.83817 8.5519,-40.39381 46.86835,-77.62775 93.91442,-91.26117 9.40045,-2.72416 29.84471,-6.59597 34.8285,-6.59597 0.336,0 0.61091,-39.50156 0.61091,-87.78123 l 0,-87.781223 -154.64286,-0.43306 C 23.1987,42.635448 31.248184,43.059612 25.507008,34.297471 c -2.258095,-3.44629 -2.280611,-4.135563 -0.262567,-8.03803 1.214029,-2.347673 4.926222,-5.721232 8.249316,-7.496798 l 6.041991,-3.228302 311.428572,0.134466 c 171.28571,0.07396 318.45874,0.626103 327.05117,1.226993 14.6946,1.027631 15.87133,1.341264 19.80999,5.279912 3.49273,3.492732 4.03587,4.944925 3.27408,8.753873 -1.17257,5.862842 -3.42055,8.027065 -10.29137,9.907925 -3.70248,1.01354 -57.18793,1.733942 -160.20101,2.157765 l -154.64286,0.636242 0,83.987123 c 0,46.19293 -0.40179,85.99606 -0.89286,88.45142 -0.82691,4.13458 -0.60258,4.46428 3.03745,4.46428 6.28241,0 29.12638,5.77063 39.40872,9.95506 38.04878,15.48406 66.92136,43.8852 80.26916,78.9585 4.3055,11.31334 4.49197,12.68576 4.51502,33.2293 0.019,16.958 -0.5456,23.36581 -2.70629,30.71428 -5.9821,20.34498 -14.50149,34.85109 -28.80581,49.04815 -19.89542,19.74623 -52.76203,37.64983 -78.9462,43.00478 -12.564,2.56947 -44.14659,3.7371 -56.46986,2.08773 l 0,0 z m 53.9377,-21.38133 c 25.53263,-5.19965 42.51451,-14.4732 62.47937,-34.119 10.21434,-10.05111 21.5823,-26.41417 24.9169,-35.86541 5.43363,-15.40057 5.03513,-44.49342 -0.85956,-62.75182 -22.12633,-68.53475 -118.69023,-97.74778 -188.17298,-56.9271 -10.58696,6.21978 -31.18505,26.75935 -37.72545,37.61829 -9.37235,15.56083 -11.64668,24.57999 -11.7077,46.42857 -0.0649,23.21944 1.77422,32.56722 9.55579,48.57143 4.60166,9.46416 8.29919,14.51981 16.76129,22.91784 15.9868,15.86576 42.26615,30.36257 63.35382,34.94866 14.05179,3.05594 44.34923,2.6506 61.39852,-0.82146 l 0,0 zM345.80396,450.39795L378.128843,450.39795L378.128843,854.45895L345.80396,854.45895zM 356.24427,850.91893 ,m0 0,c -8.95257,-11.20251 -8.6622,-4.52932 -8.65887,-198.99722 0.003,-170.65653 0.24935,-183.92534 3.53553,-190.36279 6.84894,-13.4167 13.78514,-13.3969 21.71514,0.062 3.9444,6.69448 4.0544,11.03464 4.61973,182.27261 0.59547,180.37014 0.1294,193.25751 -7.35576,203.39237 -4.26521,5.77508 -10.77902,7.48303 -13.85577,3.63303 zM 132.15405,1033.2634 ,m0 0,c -2.3858,-0.6115 -5.4843,-2.9149 -6.1798,-4.5939 -0.8838,-2.1337 -0.6972,-6.0233 0.4123,-8.5947 2.5907,-6.0045 1.2136,-4.8043 110.84761,-96.60871 57.78798,-48.39 106.34168,-88.9281 107.89707,-90.0847 1.5555,-1.1565 4.9717,-3.1697 7.5917,-4.4736 5.2601,-2.6178 10.0036,-3.6146 14.4279,-3.032 3.5146,0.4629 12.4324,5.2044 17.627,9.3722 14.8238,11.8936 209.18815,175.16031 211.49696,177.65811 7.28584,7.8822 8.08167,16.1765 1.85683,19.3522 -3.01366,1.5374 -7.62476,1.8136 -12.15384,0.7279 -4.33006,-1.038 -11.0098,-4.1718 -14.38846,-6.7504 -1.32439,-1.0108 -48.62919,-40.54211 -105.12169,-87.84731 l -102.7137,-86.0095 -2.5947,2.1999 c -18.12929,15.3711 -202.90588,169.82251 -205.13028,171.46461 -3.7487,2.7675 -8.6533,5.2601 -12.5745,6.3907 -3.5378,1.02 -8.9939,1.4204 -11.3004,0.8292 l 0,0 zM 581.94803,1029.0068 ,m0 0,c -5.00934,-2.1062 -56.21897,-43.24284 -113.7992,-91.41464 l -104.69128,-87.58509 -6.16072,5.53854 c -13.8461,12.44777 -198.1194,165.60709 -204.65358,170.09849 -9.17019,6.3033 -22.54763,6.3344 -24.95608,0.058 -2.32806,-6.0668 0.98694,-9.0627 121.65386,-109.94286 52.84444,-44.17907 96.72366,-81.75715 97.50938,-83.50682 0.78571,-1.74967 6.61364,-3.58589 12.95095,-4.08048 13.86401,-1.08202 2.00609,-9.92191 127.04905,94.71305 97.42025,81.52051 114.28571,96.55001 114.28571,101.84501 0,5.8858 -10.03949,8.1234 -19.18809,4.2767 zM 181.30953,705.7804 ,m0 0,c -3.8513,-3.85126 -3.4644,-8.01835 1.5183,-16.35108 2.3491,-3.92857 39.7895,-47 83.2008,-95.71426 86.2183,-96.75028 86.2654,-96.79545 97.7299,-93.6965 3.0171,0.81554 7.0085,2.55305 8.8699,3.86113 5.7806,4.06246 163.835,182.74859 166.3665,188.08341 2.9981,6.31807 3.0517,11.60247 0.1472,14.50704 -3.8212,3.8212 -11.2636,1.93634 -18.2882,-4.6317 -2.977,-2.78353 -157.0024,-175.72513 -160.472,-180.18005 -0.2691,-0.34545 -1.4,0.61883 -2.5131,2.14286 -4.9624,6.79428 -157.5758,177.17092 -160.7675,179.47989 -1.9643,1.421 -5.6956,3.19007 -8.2918,3.93127 -3.9132,1.11717 -5.1957,0.87229 -7.5,-1.43201 zM 181.29208,703.28748 ,m0 0,c -2.33944,-6.09649 -1.14555,-8.32948 14.65182,-27.40408 24.37214,-29.42825 115.36671,-131.5001 138.1596,-154.97855 19.1992,-19.77669 20.68047,-20.86375 27.02634,-19.83396 8.12893,1.31914 13.37803,5.14744 23.99691,17.50152 4.44467,5.17096 29.91995,33.88366 56.61172,63.80599 82.19514,92.14341 98.26806,111.53659 97.55451,117.70688 -0.84693,7.32372 -9.07548,8.33187 -15.89946,1.94797 -4.32719,-4.04815 -143.70194,-159.69344 -157.6252,-176.0263 l -5.21628,-6.11904 -5.89539,6.71366 c -3.24247,3.69251 -8.26476,9.08366 -11.16065,11.98035 -2.89588,2.89668 -19.69211,21.63117 -37.32496,41.63219 -52.44765,59.49164 -109.75633,121.98648 -113.89404,124.20092 -5.54339,2.96674 -9.57249,2.55316 -10.98492,-1.12755 zM 440.42261,368.54256 ,m0 0,c -1.66202,-1.67782 -1.97825,-2.4267 -1.63793,-3.87874 0.59832,-2.55273 2.71196,-4.11088 5.57643,-4.11088 2.92479,0 5.91069,2.428 5.91069,4.80635 0,2.11061 -2.55812,4.40551 -5.43642,4.87704 -2.02789,0.33221 -2.63774,0.0981 -4.41277,-1.69377 zM 434.36169,340.25829 ,m0 0,c -1.66202,-1.67782 -1.97825,-2.4267 -1.63793,-3.87874 0.59833,-2.55273 2.71196,-4.11088 5.57643,-4.11088 2.9248,0 5.91069,2.428 5.91069,4.80635 0,2.11061 -2.55811,4.40551 -5.43641,4.87704 -2.02789,0.33221 -2.63775,0.0981 -4.41278,-1.69377 zM 258.59515,366.52225 ,m0 0,c -1.66202,-1.67782 -1.97825,-2.4267 -1.63793,-3.87874 0.59833,-2.55273 2.71196,-4.11088 5.57643,-4.11088 2.9248,0 5.91069,2.428 5.91069,4.80635 0,2.11061 -2.55812,4.40551 -5.43642,4.87704 -2.02788,0.33221 -2.63774,0.0981 -4.41277,-1.69377 zM 262.63576,338.23798 ,m0 0,c -1.66202,-1.67782 -1.97825,-2.4267 -1.63793,-3.87874 0.59833,-2.55273 2.71196,-4.11088 5.57643,-4.11088 2.9248,0 5.91069,2.428 5.91069,4.80635 0,2.11061 -2.55812,4.40551 -5.43642,4.87704 -2.02788,0.33221 -2.63774,0.0981 -4.41277,-1.69377 z"></path></svg>